<svg width="195" height="132" viewBox="0 0 195 132" fill="none" xmlns="http://www.w3.org/2000/svg">
<mask id="path-1-inside-1_86_1424" fill="white">
<path d="M182.109 51.3789C190.965 53.5363 196.519 62.5446 192.942 70.9292C189.739 78.439 185.625 85.5496 180.677 92.0957C172.403 103.045 161.973 112.183 150.031 118.947C138.09 125.71 124.89 129.957 111.244 131.424C97.5987 132.891 83.7974 131.548 70.6909 127.477C57.5845 123.407 45.4506 116.695 35.0373 107.755C24.6241 98.816 16.1521 87.8385 10.1436 75.4996C4.13508 63.1607 0.717438 49.722 0.101324 36.0117C-0.267043 27.8146 0.370717 19.6242 1.98564 11.6211C3.78865 2.68581 13.4683 -1.59147 21.9885 1.64813C30.5088 4.88774 34.5656 14.4506 33.4853 23.5018C33.0498 27.1514 32.9119 30.8396 33.0778 34.5298C33.4915 43.7369 35.7866 52.7616 39.8216 61.0477C43.8566 69.3338 49.5459 76.7057 56.5389 82.7089C63.5319 88.7122 71.6803 93.2195 80.4819 95.9532C89.2835 98.6868 98.5517 99.5888 107.715 98.6035C116.879 97.6182 125.743 94.7665 133.763 90.2243C141.782 85.682 148.786 79.5454 154.343 72.1928C156.57 69.2458 158.546 66.1285 160.254 62.8742C164.492 54.8036 173.252 49.2216 182.109 51.3789Z"/>
</mask>
<path d="M182.109 51.3789C190.965 53.5363 196.519 62.5446 192.942 70.9292C189.739 78.439 185.625 85.5496 180.677 92.0957C172.403 103.045 161.973 112.183 150.031 118.947C138.09 125.71 124.89 129.957 111.244 131.424C97.5987 132.891 83.7974 131.548 70.6909 127.477C57.5845 123.407 45.4506 116.695 35.0373 107.755C24.6241 98.816 16.1521 87.8385 10.1436 75.4996C4.13508 63.1607 0.717438 49.722 0.101324 36.0117C-0.267043 27.8146 0.370717 19.6242 1.98564 11.6211C3.78865 2.68581 13.4683 -1.59147 21.9885 1.64813C30.5088 4.88774 34.5656 14.4506 33.4853 23.5018C33.0498 27.1514 32.9119 30.8396 33.0778 34.5298C33.4915 43.7369 35.7866 52.7616 39.8216 61.0477C43.8566 69.3338 49.5459 76.7057 56.5389 82.7089C63.5319 88.7122 71.6803 93.2195 80.4819 95.9532C89.2835 98.6868 98.5517 99.5888 107.715 98.6035C116.879 97.6182 125.743 94.7665 133.763 90.2243C141.782 85.682 148.786 79.5454 154.343 72.1928C156.57 69.2458 158.546 66.1285 160.254 62.8742C164.492 54.8036 173.252 49.2216 182.109 51.3789Z" fill="#34A853" stroke="black" stroke-width="4" mask="url(#path-1-inside-1_86_1424)"/>
</svg>
