<svg width="781" height="215" viewBox="0 0 781 215" fill="none" xmlns="http://www.w3.org/2000/svg">
<g id="GDGLogo">
<g id="leftLogo">
<path id="Vector" d="M192.053 65.3296L114.694 106.907L20.6486 76.3185L153.746 5.14815C153.747 5.14754 153.748 5.14693 153.749 5.14632C172.401 -4.43543 195.16 1.33156 205.49 17.5671C215.812 34.7595 209.627 55.7679 192.053 65.3296Z" fill="#EA4335" stroke="black"/>
<path id="Vector_2" d="M204.425 197.031L204.42 197.038L204.416 197.045C198.24 207.632 185.862 214.397 172.424 214.397C166.213 214.397 160.023 213.431 152.789 209.567C152.788 209.567 152.788 209.567 152.787 209.567L18.9135 137.218C1.36905 127.571 -4.79815 105.399 5.49854 89.0362C15.8098 72.65 39.5703 66.8419 57.1309 76.4976L57.1341 76.4994L191.01 148.849C191.01 148.849 191.011 148.85 191.012 148.85C208.555 158.498 214.721 180.669 204.425 197.031Z" fill="#4285F4" stroke="black"/>
</g>
<g id="rightLogo">
<path id="Vector_3" d="M571.709 196.165L571.705 196.159C561.135 178.816 567.462 157.617 585.459 147.965C585.46 147.964 585.461 147.964 585.461 147.964L665.729 106.014L759.905 137.844L623.626 209.661C617.227 212.576 610.869 214.5 604.536 214.5C591.814 214.5 579.117 208.706 571.709 196.165Z" fill="#FBBC04" stroke="black"/>
<path id="Vector_4" d="M774.695 125.737L774.691 125.744L774.687 125.752C768.351 136.34 755.651 143.111 741.858 143.111C735.514 143.111 728.081 141.181 721.695 138.272L584.389 65.9144C566.386 56.2609 560.069 34.0882 570.626 17.7296L570.206 17.4585L570.626 17.7296C581.203 1.33864 605.586 -4.47876 623.611 5.18606L623.614 5.18774L760.933 77.5528C778.936 87.2056 785.252 109.379 774.695 125.737Z" fill="#0F9D58" stroke="black"/>
</g>
<g id="Google Developer Groups">
<path d="M324.702 47.8V66.52C322.356 68.248 319.849 69.5173 317.182 70.328C314.537 71.1173 311.7 71.512 308.67 71.512C304.894 71.512 301.47 70.9253 298.398 69.752C295.348 68.5787 292.734 66.9467 290.558 64.856C288.404 62.7653 286.74 60.2693 285.566 57.368C284.393 54.4667 283.806 51.2987 283.806 47.864C283.806 44.3867 284.372 41.1973 285.502 38.296C286.633 35.3947 288.233 32.8987 290.302 30.808C292.393 28.7173 294.921 27.096 297.886 25.944C300.852 24.792 304.18 24.216 307.87 24.216C309.748 24.216 311.497 24.3653 313.118 24.664C314.761 24.9627 316.276 25.3787 317.662 25.912C319.07 26.424 320.35 27.0533 321.502 27.8C322.654 28.5467 323.71 29.368 324.67 30.264L322.206 34.168C321.822 34.7867 321.321 35.1707 320.702 35.32C320.084 35.448 319.412 35.288 318.686 34.84C317.982 34.4347 317.278 34.0293 316.574 33.624C315.87 33.2187 315.081 32.8667 314.206 32.568C313.353 32.2693 312.382 32.024 311.294 31.832C310.228 31.64 308.99 31.544 307.582 31.544C305.3 31.544 303.23 31.928 301.374 32.696C299.54 33.464 297.972 34.5627 296.67 35.992C295.369 37.4213 294.366 39.1387 293.662 41.144C292.958 43.1493 292.606 45.3893 292.606 47.864C292.606 50.5093 292.98 52.8773 293.726 54.968C294.494 57.0373 295.561 58.7973 296.926 60.248C298.313 61.6773 299.977 62.776 301.918 63.544C303.86 64.2907 306.025 64.664 308.414 64.664C310.121 64.664 311.646 64.4827 312.99 64.12C314.334 63.7573 315.646 63.2667 316.926 62.648V54.264H311.102C310.548 54.264 310.11 54.1147 309.79 53.816C309.492 53.496 309.342 53.112 309.342 52.664V47.8H324.702Z" fill="#EA4335"/>
<path d="M347.901 37.656C350.333 37.656 352.541 38.0507 354.525 38.84C356.53 39.6293 358.237 40.7493 359.645 42.2C361.074 43.6507 362.173 45.4213 362.941 47.512C363.709 49.6027 364.093 51.9387 364.093 54.52C364.093 57.1227 363.709 59.4693 362.941 61.56C362.173 63.6507 361.074 65.432 359.645 66.904C358.237 68.376 356.53 69.5067 354.525 70.296C352.541 71.0853 350.333 71.48 347.901 71.48C345.447 71.48 343.218 71.0853 341.213 70.296C339.207 69.5067 337.49 68.376 336.061 66.904C334.653 65.432 333.554 63.6507 332.765 61.56C331.997 59.4693 331.613 57.1227 331.613 54.52C331.613 51.9387 331.997 49.6027 332.765 47.512C333.554 45.4213 334.653 43.6507 336.061 42.2C337.49 40.7493 339.207 39.6293 341.213 38.84C343.218 38.0507 345.447 37.656 347.901 37.656ZM347.901 65.4C350.631 65.4 352.647 64.4827 353.949 62.648C355.271 60.8133 355.933 58.1253 355.933 54.584C355.933 51.0427 355.271 48.344 353.949 46.488C352.647 44.632 350.631 43.704 347.901 43.704C345.127 43.704 343.069 44.6427 341.725 46.52C340.402 48.376 339.741 51.064 339.741 54.584C339.741 58.104 340.402 60.792 341.725 62.648C343.069 64.4827 345.127 65.4 347.901 65.4ZM386.651 37.656C389.083 37.656 391.291 38.0507 393.275 38.84C395.28 39.6293 396.987 40.7493 398.395 42.2C399.824 43.6507 400.923 45.4213 401.691 47.512C402.459 49.6027 402.843 51.9387 402.843 54.52C402.843 57.1227 402.459 59.4693 401.691 61.56C400.923 63.6507 399.824 65.432 398.395 66.904C396.987 68.376 395.28 69.5067 393.275 70.296C391.291 71.0853 389.083 71.48 386.651 71.48C384.197 71.48 381.968 71.0853 379.963 70.296C377.957 69.5067 376.24 68.376 374.811 66.904C373.403 65.432 372.304 63.6507 371.515 61.56C370.747 59.4693 370.363 57.1227 370.363 54.52C370.363 51.9387 370.747 49.6027 371.515 47.512C372.304 45.4213 373.403 43.6507 374.811 42.2C376.24 40.7493 377.957 39.6293 379.963 38.84C381.968 38.0507 384.197 37.656 386.651 37.656ZM386.651 65.4C389.381 65.4 391.397 64.4827 392.699 62.648C394.021 60.8133 394.683 58.1253 394.683 54.584C394.683 51.0427 394.021 48.344 392.699 46.488C391.397 44.632 389.381 43.704 386.651 43.704C383.877 43.704 381.819 44.6427 380.475 46.52C379.152 48.376 378.491 51.064 378.491 54.584C378.491 58.104 379.152 60.792 380.475 62.648C381.819 64.4827 383.877 65.4 386.651 65.4ZM422.623 53.784C423.604 53.784 424.457 53.656 425.183 53.4C425.908 53.1227 426.505 52.7493 426.975 52.28C427.465 51.8107 427.828 51.2453 428.063 50.584C428.319 49.9227 428.447 49.1973 428.447 48.408C428.447 46.7867 427.956 45.5067 426.975 44.568C426.015 43.608 424.564 43.128 422.623 43.128C420.681 43.128 419.22 43.608 418.239 44.568C417.279 45.5067 416.799 46.7867 416.799 48.408C416.799 49.176 416.916 49.8907 417.151 50.552C417.407 51.2133 417.769 51.7893 418.239 52.28C418.729 52.7493 419.337 53.1227 420.063 53.4C420.809 53.656 421.663 53.784 422.623 53.784ZM431.551 72.472C431.551 71.832 431.359 71.3093 430.975 70.904C430.591 70.4987 430.068 70.1893 429.407 69.976C428.745 69.7413 427.967 69.5707 427.071 69.464C426.196 69.3573 425.257 69.2827 424.255 69.24C423.273 69.176 422.249 69.1227 421.183 69.08C420.137 69.0373 419.113 68.952 418.111 68.824C417.236 69.3147 416.521 69.8907 415.967 70.552C415.433 71.2133 415.167 71.9813 415.167 72.856C415.167 73.432 415.305 73.9653 415.583 74.456C415.881 74.968 416.34 75.4053 416.959 75.768C417.599 76.1307 418.42 76.408 419.423 76.6C420.425 76.8133 421.652 76.92 423.103 76.92C424.575 76.92 425.844 76.8027 426.911 76.568C427.977 76.3547 428.852 76.0453 429.535 75.64C430.239 75.256 430.751 74.7867 431.071 74.232C431.391 73.6987 431.551 73.112 431.551 72.472ZM439.423 39.288V42.232C439.423 43.1707 438.857 43.7467 437.727 43.96L434.783 44.504C435.231 45.6347 435.455 46.872 435.455 48.216C435.455 49.8373 435.124 51.3093 434.463 52.632C433.823 53.9333 432.927 55.0427 431.775 55.96C430.623 56.8773 429.257 57.592 427.679 58.104C426.121 58.5947 424.436 58.84 422.623 58.84C421.983 58.84 421.364 58.808 420.767 58.744C420.169 58.68 419.583 58.5947 419.007 58.488C417.983 59.1067 417.471 59.8 417.471 60.568C417.471 61.2293 417.769 61.72 418.367 62.04C418.985 62.3387 419.796 62.552 420.799 62.68C421.801 62.808 422.943 62.8933 424.223 62.936C425.503 62.9573 426.815 63.0213 428.159 63.128C429.503 63.2347 430.815 63.4267 432.095 63.704C433.375 63.96 434.516 64.376 435.519 64.952C436.521 65.528 437.321 66.3173 437.919 67.32C438.537 68.3013 438.847 69.5707 438.847 71.128C438.847 72.5787 438.484 73.9867 437.759 75.352C437.055 76.7173 436.02 77.9333 434.655 79C433.311 80.0667 431.647 80.92 429.663 81.56C427.7 82.2213 425.46 82.552 422.943 82.552C420.468 82.552 418.313 82.3067 416.479 81.816C414.644 81.3467 413.119 80.7067 411.903 79.896C410.687 79.1067 409.78 78.1893 409.183 77.144C408.585 76.0987 408.287 75.0107 408.287 73.88C408.287 72.344 408.745 71.064 409.663 70.04C410.601 68.9947 411.881 68.1627 413.503 67.544C412.628 67.096 411.935 66.4987 411.423 65.752C410.911 65.0053 410.655 64.024 410.655 62.808C410.655 62.3173 410.74 61.816 410.911 61.304C411.103 60.7707 411.369 60.248 411.711 59.736C412.073 59.224 412.521 58.744 413.055 58.296C413.588 57.8267 414.217 57.4107 414.943 57.048C413.279 56.152 411.967 54.9573 411.007 53.464C410.068 51.9707 409.599 50.2213 409.599 48.216C409.599 46.5947 409.919 45.1333 410.559 43.832C411.22 42.5093 412.127 41.3893 413.279 40.472C414.452 39.5333 415.828 38.8187 417.407 38.328C419.007 37.8373 420.745 37.592 422.623 37.592C424.031 37.592 425.353 37.7413 426.591 38.04C427.828 38.3173 428.959 38.7333 429.983 39.288H439.423ZM454.435 23.448V71H446.531V23.448H454.435ZM485.462 50.808C485.462 49.784 485.313 48.824 485.014 47.928C484.737 47.0107 484.31 46.2107 483.734 45.528C483.158 44.8453 482.422 44.312 481.526 43.928C480.652 43.5227 479.628 43.32 478.454 43.32C476.172 43.32 474.369 43.9707 473.046 45.272C471.745 46.5733 470.913 48.4187 470.55 50.808H485.462ZM470.39 55.576C470.518 57.2613 470.817 58.7227 471.286 59.96C471.756 61.176 472.374 62.1893 473.142 63C473.91 63.7893 474.817 64.3867 475.862 64.792C476.929 65.176 478.102 65.368 479.382 65.368C480.662 65.368 481.761 65.2187 482.678 64.92C483.617 64.6213 484.428 64.2907 485.11 63.928C485.814 63.5653 486.422 63.2347 486.934 62.936C487.468 62.6373 487.98 62.488 488.47 62.488C489.132 62.488 489.622 62.7333 489.942 63.224L492.214 66.104C491.34 67.128 490.358 67.992 489.27 68.696C488.182 69.3787 487.041 69.9333 485.846 70.36C484.673 70.7653 483.468 71.0533 482.23 71.224C481.014 71.3947 479.83 71.48 478.678 71.48C476.396 71.48 474.273 71.1067 472.31 70.36C470.348 69.592 468.641 68.472 467.19 67C465.74 65.5067 464.598 63.672 463.766 61.496C462.934 59.2987 462.518 56.76 462.518 53.88C462.518 51.64 462.881 49.5387 463.606 47.576C464.332 45.592 465.366 43.8747 466.71 42.424C468.076 40.952 469.729 39.7893 471.67 38.936C473.633 38.0827 475.841 37.656 478.294 37.656C480.364 37.656 482.273 37.9867 484.022 38.648C485.772 39.3093 487.276 40.28 488.534 41.56C489.793 42.8187 490.774 44.376 491.478 46.232C492.204 48.0667 492.566 50.168 492.566 52.536C492.566 53.7307 492.438 54.5413 492.182 54.968C491.926 55.3733 491.436 55.576 490.71 55.576H470.39ZM307.462 111.808C307.462 110.784 307.313 109.824 307.014 108.928C306.737 108.011 306.31 107.211 305.734 106.528C305.158 105.845 304.422 105.312 303.526 104.928C302.652 104.523 301.628 104.32 300.454 104.32C298.172 104.32 296.369 104.971 295.046 106.272C293.745 107.573 292.913 109.419 292.55 111.808H307.462ZM292.39 116.576C292.518 118.261 292.817 119.723 293.286 120.96C293.756 122.176 294.374 123.189 295.142 124C295.91 124.789 296.817 125.387 297.862 125.792C298.929 126.176 300.102 126.368 301.382 126.368C302.662 126.368 303.761 126.219 304.678 125.92C305.617 125.621 306.428 125.291 307.11 124.928C307.814 124.565 308.422 124.235 308.934 123.936C309.468 123.637 309.98 123.488 310.47 123.488C311.132 123.488 311.622 123.733 311.942 124.224L314.214 127.104C313.34 128.128 312.358 128.992 311.27 129.696C310.182 130.379 309.041 130.933 307.846 131.36C306.673 131.765 305.468 132.053 304.23 132.224C303.014 132.395 301.83 132.48 300.678 132.48C298.396 132.48 296.273 132.107 294.31 131.36C292.348 130.592 290.641 129.472 289.19 128C287.74 126.507 286.598 124.672 285.766 122.496C284.934 120.299 284.518 117.76 284.518 114.88C284.518 112.64 284.881 110.539 285.606 108.576C286.332 106.592 287.366 104.875 288.71 103.424C290.076 101.952 291.729 100.789 293.67 99.936C295.633 99.0827 297.841 98.656 300.294 98.656C302.364 98.656 304.273 98.9867 306.022 99.648C307.772 100.309 309.276 101.28 310.534 102.56C311.793 103.819 312.774 105.376 313.478 107.232C314.204 109.067 314.566 111.168 314.566 113.536C314.566 114.731 314.438 115.541 314.182 115.968C313.926 116.373 313.436 116.576 312.71 116.576H292.39ZM351.285 99.168L338.261 132H331.093L318.069 99.168H324.597C325.195 99.168 325.685 99.3067 326.069 99.584C326.475 99.8613 326.741 100.213 326.869 100.64L333.205 118.176C333.547 119.2 333.845 120.203 334.101 121.184C334.357 122.165 334.581 123.147 334.773 124.128C334.987 123.147 335.221 122.165 335.477 121.184C335.733 120.203 336.043 119.2 336.405 118.176L342.869 100.64C343.019 100.213 343.285 99.8613 343.669 99.584C344.053 99.3067 344.512 99.168 345.045 99.168H351.285ZM377.65 111.808C377.65 110.784 377.5 109.824 377.202 108.928C376.924 108.011 376.498 107.211 375.922 106.528C375.346 105.845 374.61 105.312 373.714 104.928C372.839 104.523 371.815 104.32 370.642 104.32C368.359 104.32 366.556 104.971 365.234 106.272C363.932 107.573 363.1 109.419 362.738 111.808H377.65ZM362.578 116.576C362.706 118.261 363.004 119.723 363.474 120.96C363.943 122.176 364.562 123.189 365.33 124C366.098 124.789 367.004 125.387 368.05 125.792C369.116 126.176 370.29 126.368 371.57 126.368C372.85 126.368 373.948 126.219 374.866 125.92C375.804 125.621 376.615 125.291 377.298 124.928C378.002 124.565 378.61 124.235 379.122 123.936C379.655 123.637 380.167 123.488 380.658 123.488C381.319 123.488 381.81 123.733 382.13 124.224L384.402 127.104C383.527 128.128 382.546 128.992 381.458 129.696C380.37 130.379 379.228 130.933 378.034 131.36C376.86 131.765 375.655 132.053 374.418 132.224C373.202 132.395 372.018 132.48 370.866 132.48C368.583 132.48 366.46 132.107 364.498 131.36C362.535 130.592 360.828 129.472 359.378 128C357.927 126.507 356.786 124.672 355.954 122.496C355.122 120.299 354.706 117.76 354.706 114.88C354.706 112.64 355.068 110.539 355.794 108.576C356.519 106.592 357.554 104.875 358.898 103.424C360.263 101.952 361.916 100.789 363.858 99.936C365.82 99.0827 368.028 98.656 370.482 98.656C372.551 98.656 374.46 98.9867 376.21 99.648C377.959 100.309 379.463 101.28 380.722 102.56C381.98 103.819 382.962 105.376 383.666 107.232C384.391 109.067 384.754 111.168 384.754 113.536C384.754 114.731 384.626 115.541 384.37 115.968C384.114 116.373 383.623 116.576 382.898 116.576H362.578ZM400.685 84.448V132H392.781V84.448H400.685ZM425.088 98.656C427.52 98.656 429.728 99.0507 431.712 99.84C433.718 100.629 435.424 101.749 436.832 103.2C438.262 104.651 439.36 106.421 440.128 108.512C440.896 110.603 441.28 112.939 441.28 115.52C441.28 118.123 440.896 120.469 440.128 122.56C439.36 124.651 438.262 126.432 436.832 127.904C435.424 129.376 433.718 130.507 431.712 131.296C429.728 132.085 427.52 132.48 425.088 132.48C422.635 132.48 420.406 132.085 418.4 131.296C416.395 130.507 414.678 129.376 413.248 127.904C411.84 126.432 410.742 124.651 409.952 122.56C409.184 120.469 408.8 118.123 408.8 115.52C408.8 112.939 409.184 110.603 409.952 108.512C410.742 106.421 411.84 104.651 413.248 103.2C414.678 101.749 416.395 100.629 418.4 99.84C420.406 99.0507 422.635 98.656 425.088 98.656ZM425.088 126.4C427.819 126.4 429.835 125.483 431.136 123.648C432.459 121.813 433.12 119.125 433.12 115.584C433.12 112.043 432.459 109.344 431.136 107.488C429.835 105.632 427.819 104.704 425.088 104.704C422.315 104.704 420.256 105.643 418.912 107.52C417.59 109.376 416.928 112.064 416.928 115.584C416.928 119.104 417.59 121.792 418.912 123.648C420.256 125.483 422.315 126.4 425.088 126.4ZM457.214 123.488C458.11 124.576 459.081 125.344 460.126 125.792C461.193 126.24 462.345 126.464 463.582 126.464C464.777 126.464 465.854 126.24 466.814 125.792C467.774 125.344 468.585 124.661 469.246 123.744C469.929 122.827 470.452 121.675 470.814 120.288C471.177 118.88 471.358 117.227 471.358 115.328C471.358 113.408 471.198 111.787 470.878 110.464C470.58 109.12 470.142 108.032 469.566 107.2C468.99 106.368 468.286 105.76 467.454 105.376C466.644 104.992 465.716 104.8 464.67 104.8C463.028 104.8 461.63 105.152 460.478 105.856C459.326 106.539 458.238 107.509 457.214 108.768V123.488ZM456.798 103.648C458.142 102.133 459.668 100.907 461.374 99.968C463.081 99.0293 465.086 98.56 467.39 98.56C469.182 98.56 470.814 98.9333 472.286 99.68C473.78 100.427 475.06 101.515 476.126 102.944C477.214 104.352 478.046 106.101 478.622 108.192C479.22 110.261 479.518 112.64 479.518 115.328C479.518 117.781 479.188 120.053 478.526 122.144C477.865 124.235 476.916 126.048 475.678 127.584C474.462 129.12 472.98 130.325 471.23 131.2C469.502 132.053 467.561 132.48 465.406 132.48C463.572 132.48 462.004 132.203 460.702 131.648C459.401 131.072 458.238 130.283 457.214 129.28V142.72H449.31V99.168H454.142C455.166 99.168 455.838 99.648 456.158 100.608L456.798 103.648ZM508.837 111.808C508.837 110.784 508.688 109.824 508.389 108.928C508.112 108.011 507.685 107.211 507.109 106.528C506.533 105.845 505.797 105.312 504.901 104.928C504.027 104.523 503.003 104.32 501.829 104.32C499.547 104.32 497.744 104.971 496.421 106.272C495.12 107.573 494.288 109.419 493.925 111.808H508.837ZM493.765 116.576C493.893 118.261 494.192 119.723 494.661 120.96C495.131 122.176 495.749 123.189 496.517 124C497.285 124.789 498.192 125.387 499.237 125.792C500.304 126.176 501.477 126.368 502.757 126.368C504.037 126.368 505.136 126.219 506.053 125.92C506.992 125.621 507.803 125.291 508.485 124.928C509.189 124.565 509.797 124.235 510.309 123.936C510.843 123.637 511.355 123.488 511.845 123.488C512.507 123.488 512.997 123.733 513.317 124.224L515.589 127.104C514.715 128.128 513.733 128.992 512.645 129.696C511.557 130.379 510.416 130.933 509.221 131.36C508.048 131.765 506.843 132.053 505.605 132.224C504.389 132.395 503.205 132.48 502.053 132.48C499.771 132.48 497.648 132.107 495.685 131.36C493.723 130.592 492.016 129.472 490.565 128C489.115 126.507 487.973 124.672 487.141 122.496C486.309 120.299 485.893 117.76 485.893 114.88C485.893 112.64 486.256 110.539 486.981 108.576C487.707 106.592 488.741 104.875 490.085 103.424C491.451 101.952 493.104 100.789 495.045 99.936C497.008 99.0827 499.216 98.656 501.669 98.656C503.739 98.656 505.648 98.9867 507.397 99.648C509.147 100.309 510.651 101.28 511.909 102.56C513.168 103.819 514.149 105.376 514.853 107.232C515.579 109.067 515.941 111.168 515.941 113.536C515.941 114.731 515.813 115.541 515.557 115.968C515.301 116.373 514.811 116.576 514.085 116.576H493.765ZM531.329 104.864C532.353 102.901 533.569 101.365 534.977 100.256C536.385 99.1253 538.049 98.56 539.969 98.56C541.483 98.56 542.699 98.8907 543.617 99.552L543.105 105.472C542.998 105.856 542.838 106.133 542.625 106.304C542.433 106.453 542.166 106.528 541.825 106.528C541.505 106.528 541.025 106.475 540.385 106.368C539.766 106.261 539.158 106.208 538.561 106.208C537.686 106.208 536.907 106.336 536.225 106.592C535.542 106.848 534.923 107.221 534.369 107.712C533.835 108.181 533.355 108.757 532.929 109.44C532.523 110.123 532.139 110.901 531.777 111.776V132H523.873V99.168H528.513C529.323 99.168 529.889 99.3173 530.209 99.616C530.529 99.8933 530.742 100.405 530.849 101.152L531.329 104.864ZM339.173 165.864C340.197 163.901 341.413 162.365 342.821 161.256C344.229 160.125 345.893 159.56 347.812 159.56C349.327 159.56 350.543 159.891 351.461 160.552L350.949 166.472C350.842 166.856 350.682 167.133 350.469 167.304C350.277 167.453 350.01 167.528 349.669 167.528C349.349 167.528 348.869 167.475 348.229 167.368C347.61 167.261 347.002 167.208 346.405 167.208C345.53 167.208 344.751 167.336 344.069 167.592C343.386 167.848 342.767 168.221 342.213 168.712C341.679 169.181 341.199 169.757 340.773 170.44C340.367 171.123 339.983 171.901 339.621 172.776V193H331.717V160.168H336.357C337.167 160.168 337.733 160.317 338.053 160.616C338.373 160.893 338.586 161.405 338.693 162.152L339.173 165.864ZM371.182 159.656C373.614 159.656 375.822 160.051 377.806 160.84C379.811 161.629 381.518 162.749 382.926 164.2C384.355 165.651 385.454 167.421 386.222 169.512C386.99 171.603 387.374 173.939 387.374 176.52C387.374 179.123 386.99 181.469 386.222 183.56C385.454 185.651 384.355 187.432 382.926 188.904C381.518 190.376 379.811 191.507 377.806 192.296C375.822 193.085 373.614 193.48 371.182 193.48C368.729 193.48 366.499 193.085 364.494 192.296C362.489 191.507 360.771 190.376 359.342 188.904C357.934 187.432 356.835 185.651 356.046 183.56C355.278 181.469 354.894 179.123 354.894 176.52C354.894 173.939 355.278 171.603 356.046 169.512C356.835 167.421 357.934 165.651 359.342 164.2C360.771 162.749 362.489 161.629 364.494 160.84C366.499 160.051 368.729 159.656 371.182 159.656ZM371.182 187.4C373.913 187.4 375.929 186.483 377.23 184.648C378.553 182.813 379.214 180.125 379.214 176.584C379.214 173.043 378.553 170.344 377.23 168.488C375.929 166.632 373.913 165.704 371.182 165.704C368.409 165.704 366.35 166.643 365.006 168.52C363.683 170.376 363.022 173.064 363.022 176.584C363.022 180.104 363.683 182.792 365.006 184.648C366.35 186.483 368.409 187.4 371.182 187.4ZM423.692 160.168V193H418.86C417.815 193 417.153 192.52 416.876 191.56L416.332 188.936C414.988 190.301 413.505 191.411 411.884 192.264C410.263 193.096 408.353 193.512 406.156 193.512C404.364 193.512 402.775 193.213 401.388 192.616C400.023 191.997 398.871 191.133 397.932 190.024C396.993 188.915 396.279 187.603 395.788 186.088C395.319 184.552 395.084 182.867 395.084 181.032V160.168H402.988V181.032C402.988 183.037 403.447 184.595 404.364 185.704C405.303 186.792 406.7 187.336 408.556 187.336C409.921 187.336 411.201 187.037 412.396 186.44C413.591 185.821 414.721 184.979 415.788 183.912V160.168H423.692ZM441.433 184.488C442.329 185.576 443.3 186.344 444.345 186.792C445.412 187.24 446.564 187.464 447.801 187.464C448.996 187.464 450.073 187.24 451.033 186.792C451.993 186.344 452.804 185.661 453.465 184.744C454.148 183.827 454.67 182.675 455.033 181.288C455.396 179.88 455.577 178.227 455.577 176.328C455.577 174.408 455.417 172.787 455.097 171.464C454.798 170.12 454.361 169.032 453.785 168.2C453.209 167.368 452.505 166.76 451.673 166.376C450.862 165.992 449.934 165.8 448.889 165.8C447.246 165.8 445.849 166.152 444.697 166.856C443.545 167.539 442.457 168.509 441.433 169.768V184.488ZM441.017 164.648C442.361 163.133 443.886 161.907 445.593 160.968C447.3 160.029 449.305 159.56 451.609 159.56C453.401 159.56 455.033 159.933 456.505 160.68C457.998 161.427 459.278 162.515 460.345 163.944C461.433 165.352 462.265 167.101 462.841 169.192C463.438 171.261 463.737 173.64 463.737 176.328C463.737 178.781 463.406 181.053 462.745 183.144C462.084 185.235 461.134 187.048 459.897 188.584C458.681 190.12 457.198 191.325 455.449 192.2C453.721 193.053 451.78 193.48 449.625 193.48C447.79 193.48 446.222 193.203 444.921 192.648C443.62 192.072 442.457 191.283 441.433 190.28V203.72H433.529V160.168H438.361C439.385 160.168 440.057 160.648 440.377 161.608L441.017 164.648ZM491.936 166.568C491.723 166.909 491.499 167.155 491.264 167.304C491.029 167.432 490.731 167.496 490.368 167.496C489.984 167.496 489.568 167.389 489.12 167.176C488.693 166.963 488.192 166.728 487.616 166.472C487.04 166.195 486.379 165.949 485.632 165.736C484.907 165.523 484.043 165.416 483.04 165.416C481.483 165.416 480.256 165.747 479.36 166.408C478.485 167.069 478.048 167.933 478.048 169C478.048 169.704 478.272 170.301 478.72 170.792C479.189 171.261 479.797 171.677 480.544 172.04C481.312 172.403 482.176 172.733 483.136 173.032C484.096 173.309 485.067 173.619 486.048 173.96C487.051 174.301 488.032 174.696 488.992 175.144C489.952 175.571 490.805 176.125 491.552 176.808C492.32 177.469 492.928 178.269 493.376 179.208C493.845 180.147 494.08 181.277 494.08 182.6C494.08 184.179 493.792 185.64 493.216 186.984C492.661 188.307 491.829 189.459 490.72 190.44C489.611 191.4 488.235 192.157 486.592 192.712C484.971 193.245 483.093 193.512 480.96 193.512C479.829 193.512 478.72 193.405 477.632 193.192C476.565 193 475.531 192.723 474.528 192.36C473.547 191.997 472.629 191.571 471.776 191.08C470.944 190.589 470.208 190.056 469.568 189.48L471.392 186.472C471.627 186.109 471.904 185.832 472.224 185.64C472.544 185.448 472.949 185.352 473.44 185.352C473.931 185.352 474.389 185.491 474.816 185.768C475.264 186.045 475.776 186.344 476.352 186.664C476.928 186.984 477.6 187.283 478.368 187.56C479.157 187.837 480.149 187.976 481.344 187.976C482.283 187.976 483.083 187.869 483.744 187.656C484.427 187.421 484.981 187.123 485.408 186.76C485.856 186.397 486.176 185.981 486.368 185.512C486.581 185.021 486.688 184.52 486.688 184.008C486.688 183.24 486.453 182.611 485.984 182.12C485.536 181.629 484.928 181.203 484.16 180.84C483.413 180.477 482.549 180.157 481.568 179.88C480.608 179.581 479.616 179.261 478.592 178.92C477.589 178.579 476.597 178.184 475.616 177.736C474.656 177.267 473.792 176.68 473.024 175.976C472.277 175.272 471.669 174.408 471.2 173.384C470.752 172.36 470.528 171.123 470.528 169.672C470.528 168.328 470.795 167.048 471.328 165.832C471.861 164.616 472.64 163.56 473.664 162.664C474.709 161.747 476 161.021 477.536 160.488C479.093 159.933 480.885 159.656 482.912 159.656C485.173 159.656 487.232 160.029 489.088 160.776C490.944 161.523 492.491 162.504 493.728 163.72L491.936 166.568Z" fill="#656C73"/>
<path d="M278.396 108.864C278.396 112.256 277.831 115.371 276.7 118.208C275.57 121.045 273.98 123.488 271.932 125.536C269.884 127.584 267.42 129.173 264.54 130.304C261.66 131.435 258.46 132 254.94 132H237.308V85.728H254.94C258.46 85.728 261.66 86.304 264.54 87.456C267.42 88.5867 269.884 90.176 271.932 92.224C273.98 94.2507 275.57 96.6827 276.7 99.52C277.831 102.357 278.396 105.472 278.396 108.864ZM269.564 108.864C269.564 106.325 269.223 104.053 268.54 102.048C267.879 100.021 266.908 98.3147 265.628 96.928C264.37 95.52 262.834 94.4427 261.02 93.696C259.228 92.9493 257.202 92.576 254.94 92.576H245.948V125.152H254.94C257.202 125.152 259.228 124.779 261.02 124.032C262.834 123.285 264.37 122.219 265.628 120.832C266.908 119.424 267.879 117.717 268.54 115.712C269.223 113.685 269.564 111.403 269.564 108.864Z" fill="#4285F4"/>
<path d="M323.171 169.8V188.52C320.824 190.248 318.318 191.517 315.651 192.328C313.006 193.117 310.168 193.512 307.139 193.512C303.363 193.512 299.939 192.925 296.867 191.752C293.816 190.579 291.203 188.947 289.027 186.856C286.872 184.765 285.208 182.269 284.035 179.368C282.862 176.467 282.275 173.299 282.275 169.864C282.275 166.387 282.84 163.197 283.971 160.296C285.102 157.395 286.702 154.899 288.771 152.808C290.862 150.717 293.39 149.096 296.355 147.944C299.32 146.792 302.648 146.216 306.339 146.216C308.216 146.216 309.966 146.365 311.587 146.664C313.23 146.963 314.744 147.379 316.131 147.912C317.539 148.424 318.819 149.053 319.971 149.8C321.123 150.547 322.179 151.368 323.139 152.264L320.675 156.168C320.291 156.787 319.79 157.171 319.171 157.32C318.552 157.448 317.88 157.288 317.155 156.84C316.451 156.435 315.747 156.029 315.043 155.624C314.339 155.219 313.55 154.867 312.675 154.568C311.822 154.269 310.851 154.024 309.763 153.832C308.696 153.64 307.459 153.544 306.051 153.544C303.768 153.544 301.699 153.928 299.843 154.696C298.008 155.464 296.44 156.563 295.139 157.992C293.838 159.421 292.835 161.139 292.131 163.144C291.427 165.149 291.075 167.389 291.075 169.864C291.075 172.509 291.448 174.877 292.195 176.968C292.963 179.037 294.03 180.797 295.395 182.248C296.782 183.677 298.446 184.776 300.387 185.544C302.328 186.291 304.494 186.664 306.883 186.664C308.59 186.664 310.115 186.483 311.459 186.12C312.803 185.757 314.115 185.267 315.395 184.648V176.264H309.571C309.016 176.264 308.579 176.115 308.259 175.816C307.96 175.496 307.811 175.112 307.811 174.664V169.8H323.171Z" fill="#34A853"/>
</g>
</g>
</svg>
