<svg width="197" height="390" viewBox="0 0 197 390" fill="none" xmlns="http://www.w3.org/2000/svg">
<path d="M71 35C71 53.7513 55.3567 69 36 69C16.6433 69 1 53.7513 1 35C1 16.2487 16.6433 1 36 1C55.3567 1 71 16.2487 71 35Z" stroke="black" stroke-width="2"/>
<path d="M321 239C321 321.812 251.635 389 166 389C80.3649 389 11 321.812 11 239C11 156.188 80.3649 89 166 89C251.635 89 321 156.188 321 239Z" stroke="black" stroke-width="2"/>
<path d="M272.5 239C272.5 297.262 224.823 344.5 166 344.5C107.177 344.5 59.5 297.262 59.5 239C59.5 180.738 107.177 133.5 166 133.5C224.823 133.5 272.5 180.738 272.5 239Z" fill="#34A853" stroke="black"/>
</svg>
