<svg width="781" height="215" viewBox="0 0 781 215" fill="none" xmlns="http://www.w3.org/2000/svg">
<g id="Group 16">
<g id="GDGLogo">
<g id="leftLogo">
<path id="Vector" d="M192.053 65.3296L114.694 106.907L20.6486 76.3185L153.746 5.14815C153.747 5.14747 153.748 5.14679 153.75 5.1461C172.401 -4.43534 195.16 1.33168 205.49 17.5671C215.812 34.7595 209.627 55.7679 192.053 65.3296Z" fill="#EA4335" stroke="white"/>
<path id="Vector (Stroke)" d="M153.753 5.14451L153.75 5.14608L153.753 5.14444C153.753 5.14447 153.753 5.14448 153.753 5.14451Z" fill="black" stroke="white"/>
<path id="Vector_2" d="M204.425 197.031L204.42 197.038L204.416 197.045C198.24 207.632 185.862 214.397 172.424 214.397C166.213 214.397 160.023 213.431 152.789 209.567C152.788 209.567 152.788 209.567 152.787 209.567L18.9135 137.218C1.36905 127.571 -4.79815 105.399 5.49853 89.0362C15.8098 72.65 39.5703 66.8419 57.1309 76.4976L57.1341 76.4994L191.01 148.849C191.01 148.849 191.011 148.85 191.012 148.85C208.555 158.498 214.721 180.669 204.425 197.031Z" fill="#4285F4" stroke="white"/>
<g id="Vector (Stroke)_2">
<mask id="path-4-inside-1_313_230" fill="white">
<path fill-rule="evenodd" clip-rule="evenodd" d="M203.993 196.779L204.002 196.765C214.135 180.661 208.078 158.807 190.771 149.289C190.771 149.288 190.77 149.288 190.769 149.287L56.89 76.9358C39.5496 67.4011 16.085 73.1516 5.92172 89.3025L5.07535 88.7699C15.5346 72.1485 39.591 66.2826 57.3718 76.0595L191.251 148.411C209.032 158.188 215.308 180.676 204.848 197.297C198.573 208.053 186.021 214.897 172.424 214.897C166.149 214.897 159.873 213.919 152.551 210.008L18.6726 137.656C0.891788 127.879 -5.38399 105.391 5.07535 88.7699L5.92172 89.3025C-4.21169 105.406 1.84558 127.26 19.1512 136.778C19.1523 136.779 19.1534 136.779 19.1544 136.78L153.023 209.126C153.023 209.126 153.024 209.126 153.025 209.127C160.172 212.944 166.278 213.897 172.424 213.897C185.703 213.897 197.906 207.211 203.984 196.793L203.993 196.779Z"/>
</mask>
<path fill-rule="evenodd" clip-rule="evenodd" d="M203.993 196.779L204.002 196.765C214.135 180.661 208.078 158.807 190.771 149.289C190.771 149.288 190.77 149.288 190.769 149.287L56.89 76.9358C39.5496 67.4011 16.085 73.1516 5.92172 89.3025L5.07535 88.7699C15.5346 72.1485 39.591 66.2826 57.3718 76.0595L191.251 148.411C209.032 158.188 215.308 180.676 204.848 197.297C198.573 208.053 186.021 214.897 172.424 214.897C166.149 214.897 159.873 213.919 152.551 210.008L18.6726 137.656C0.891788 127.879 -5.38399 105.391 5.07535 88.7699L5.92172 89.3025C-4.21169 105.406 1.84558 127.26 19.1512 136.778C19.1523 136.779 19.1534 136.779 19.1544 136.78L153.023 209.126C153.023 209.126 153.024 209.126 153.025 209.127C160.172 212.944 166.278 213.897 172.424 213.897C185.703 213.897 197.906 207.211 203.984 196.793L203.993 196.779Z" fill="black"/>
<path d="M4.80905 89.1931L5.65542 89.7257L6.18802 88.8793L5.34165 88.3467L4.80905 89.1931ZM204.002 196.765L203.155 196.232L203.155 196.232L204.002 196.765ZM203.993 196.779L203.146 196.246L203.137 196.261L203.129 196.275L203.993 196.779ZM190.771 149.289L190.285 150.162L190.29 150.165L190.771 149.289ZM190.769 149.287L191.255 148.413L191.244 148.407L190.769 149.287ZM56.89 76.9358L56.4082 77.8121L56.4146 77.8155L56.89 76.9358ZM5.92172 89.3025L6.76809 89.8351L6.76809 89.8351L5.92172 89.3025ZM5.07535 88.7699L5.92172 89.3025L5.92172 89.3025L5.07535 88.7699ZM57.3718 76.0595L56.89 76.9358L56.8964 76.9392L57.3718 76.0595ZM191.251 148.411L191.733 147.535L191.726 147.531L191.251 148.411ZM204.848 197.297L204.002 196.765L203.993 196.779L203.984 196.793L204.848 197.297ZM152.551 210.008L152.076 210.887L152.08 210.89L152.551 210.008ZM18.6726 137.656L18.1908 138.532L18.1971 138.536L18.6726 137.656ZM19.1512 136.778L18.6693 137.654L18.6695 137.654L19.1512 136.778ZM19.1544 136.78L18.6727 137.656L18.679 137.66L19.1544 136.78ZM153.023 209.126L152.547 210.005L152.55 210.007L153.023 209.126ZM153.025 209.127L152.552 210.008L152.553 210.009L153.025 209.127ZM203.984 196.793L204.848 197.297L204.848 197.297L203.984 196.793ZM203.155 196.232L203.146 196.246L204.839 197.311L204.848 197.297L203.155 196.232ZM190.29 150.165C207.123 159.423 212.964 180.646 203.155 196.232L204.848 197.297C215.307 180.677 209.033 158.191 191.253 148.412L190.29 150.165ZM190.283 150.161C190.285 150.162 190.287 150.163 190.288 150.164C190.289 150.165 190.29 150.165 190.291 150.165C190.291 150.166 190.289 150.164 190.285 150.162L191.258 148.415C191.255 148.414 191.253 148.412 191.252 148.412C191.251 148.411 191.25 148.411 191.25 148.41C191.249 148.41 191.252 148.412 191.255 148.413L190.283 150.161ZM6.76809 89.8351C16.6354 74.1544 39.5083 68.5196 56.4082 77.8121L57.3718 76.0595C39.5909 66.2826 15.5345 72.1487 5.07535 88.7699L6.76809 89.8351ZM57.8537 75.1832C39.6325 65.1642 14.9843 71.1455 4.22898 88.2373L5.92172 89.3025C16.085 73.1516 39.5496 67.4011 56.89 76.9358L57.8537 75.1832ZM191.726 147.531L57.8473 75.1797L56.8964 76.9392L190.775 149.291L191.726 147.531ZM205.694 197.83C216.479 180.692 209.986 157.572 191.733 147.535L190.769 149.287C208.077 158.805 214.136 180.661 204.002 196.765L205.694 197.83ZM172.424 215.897C186.34 215.897 199.24 208.894 205.712 197.801L203.984 196.793C197.906 207.211 185.703 213.897 172.424 213.897V215.897ZM152.08 210.89C159.575 214.893 166.02 215.897 172.424 215.897V213.897C166.277 213.897 160.171 212.944 153.023 209.126L152.08 210.89ZM18.1971 138.536L152.076 210.887L153.027 209.128L19.148 136.776L18.1971 138.536ZM4.22898 88.2373C-6.55567 105.376 -0.0627421 128.496 18.1908 138.532L19.1544 136.78C1.84632 127.263 -4.2123 105.407 5.92172 89.3025L4.22898 88.2373ZM19.6332 135.902C2.80045 126.644 -3.0402 105.422 6.76809 89.8351L5.07535 88.7699C-5.38317 105.39 0.890714 127.876 18.6693 137.654L19.6332 135.902ZM19.6361 135.903C19.6358 135.903 19.6355 135.903 19.6349 135.903C19.6344 135.903 19.6337 135.902 19.633 135.902L18.6695 137.654C18.6698 137.655 18.6702 137.655 18.6708 137.655C18.6713 137.655 18.6719 137.656 18.6727 137.656L19.6361 135.903ZM153.498 208.246L19.6298 135.9L18.679 137.66L152.547 210.005L153.498 208.246ZM153.497 208.245C153.496 208.244 153.494 208.244 153.494 208.243C153.493 208.243 153.492 208.243 153.492 208.242C153.491 208.242 153.493 208.243 153.495 208.244L152.55 210.007C152.551 210.008 152.553 210.008 152.554 210.009C152.554 210.009 152.555 210.01 152.555 210.01C152.556 210.01 152.554 210.009 152.552 210.008L153.497 208.245ZM172.424 212.897C166.407 212.897 160.47 211.969 153.496 208.244L152.553 210.009C159.874 213.919 166.149 214.897 172.424 214.897V212.897ZM203.12 196.289C197.239 206.369 185.384 212.897 172.424 212.897V214.897C186.022 214.897 198.573 208.053 204.848 197.297L203.12 196.289ZM203.129 196.275L203.12 196.289L204.848 197.297L204.857 197.282L203.129 196.275ZM56.4146 77.8155L190.294 150.167L191.244 148.407L57.3654 76.056L56.4146 77.8155Z" fill="white" mask="url(#path-4-inside-1_313_230)"/>
</g>
</g>
<g id="rightLogo">
<path id="Vector_3" d="M571.709 196.165L571.705 196.159C561.135 178.816 567.462 157.617 585.459 147.965C585.46 147.965 585.46 147.964 585.461 147.964L665.729 106.014L759.905 137.844L623.626 209.661C617.227 212.576 610.869 214.5 604.536 214.5C591.814 214.5 579.117 208.706 571.709 196.165Z" fill="#FBBC04" stroke="white"/>
<g id="Vector (Stroke)_3">
<mask id="path-7-inside-2_313_230" fill="white">
<path fill-rule="evenodd" clip-rule="evenodd" d="M572.139 195.911C579.445 208.279 591.967 214 604.536 214C610.765 214 617.045 212.109 623.406 209.212L758.641 137.945L665.772 106.556L585.698 148.404C585.696 148.405 585.695 148.406 585.693 148.407C567.936 157.931 561.719 178.814 572.132 195.899L572.139 195.911ZM585.225 147.523L665.687 105.472L761.169 137.743L623.846 210.11C617.41 213.044 610.973 215 604.536 215C591.662 215 578.788 209.132 571.278 196.419C560.55 178.817 566.987 157.302 585.225 147.523Z"/>
</mask>
<path fill-rule="evenodd" clip-rule="evenodd" d="M572.139 195.911C579.445 208.279 591.967 214 604.536 214C610.765 214 617.045 212.109 623.406 209.212L758.641 137.945L665.772 106.556L585.698 148.404C585.696 148.405 585.695 148.406 585.693 148.407C567.936 157.931 561.719 178.814 572.132 195.899L572.139 195.911ZM585.225 147.523L665.687 105.472L761.169 137.743L623.846 210.11C617.41 213.044 610.973 215 604.536 215C591.662 215 578.788 209.132 571.278 196.419C560.55 178.817 566.987 157.302 585.225 147.523Z" fill="black"/>
<path d="M572.139 195.911L573 195.402L572.997 195.396L572.139 195.911ZM623.406 209.212L623.82 210.122L623.846 210.11L623.872 210.097L623.406 209.212ZM758.641 137.945L759.108 138.83L761.169 137.743L758.962 136.997L758.641 137.945ZM665.772 106.556L666.092 105.609L665.687 105.472L665.309 105.67L665.772 106.556ZM585.698 148.404L585.234 147.518L585.224 147.523L585.698 148.404ZM585.693 148.407L586.166 149.288L586.166 149.288L585.693 148.407ZM572.132 195.899L572.99 195.384L572.986 195.378L572.132 195.899ZM665.687 105.472L666.007 104.525L665.603 104.388L665.224 104.586L665.687 105.472ZM585.225 147.523L584.762 146.637L584.752 146.642L585.225 147.523ZM761.169 137.743L761.635 138.628L763.696 137.542L761.489 136.796L761.169 137.743ZM623.846 210.11L624.261 211.02L624.287 211.008L624.313 210.995L623.846 210.11ZM571.278 196.419L572.139 195.911L572.132 195.899L571.278 196.419ZM604.536 213C592.271 213 580.103 207.426 573 195.402L571.278 196.419C578.788 209.132 591.662 215 604.536 215V213ZM622.991 208.302C616.698 211.168 610.566 213 604.536 213V215C610.964 215 617.392 213.049 623.82 210.122L622.991 208.302ZM758.175 137.06L622.939 208.327L623.872 210.097L759.108 138.83L758.175 137.06ZM665.452 107.503L758.321 138.892L758.962 136.997L666.092 105.609L665.452 107.503ZM586.161 149.29L666.235 107.442L665.309 105.67L585.234 147.518L586.161 149.29ZM586.166 149.288C586.166 149.288 586.166 149.287 586.167 149.287C586.168 149.287 586.169 149.286 586.171 149.285L585.224 147.523C585.224 147.523 585.224 147.523 585.223 147.524C585.223 147.524 585.221 147.525 585.22 147.526L586.166 149.288ZM572.986 195.378C562.888 178.81 568.887 158.556 586.166 149.288L585.22 147.525C566.985 157.306 560.551 178.819 571.278 196.419L572.986 195.378ZM572.997 195.396L572.99 195.384L571.275 196.413L571.282 196.425L572.997 195.396ZM665.224 104.586L584.762 146.637L585.688 148.409L666.15 106.358L665.224 104.586ZM604.536 216C611.172 216 617.758 213.985 624.261 211.02L623.431 209.2C617.062 212.104 610.774 214 604.536 214V216ZM570.417 196.928C578.131 209.986 591.358 216 604.536 216V214C591.967 214 579.445 208.279 572.139 195.911L570.417 196.928ZM584.752 146.642C566.036 156.677 559.381 178.82 570.424 196.94L572.132 195.899C561.719 178.813 567.937 157.927 585.698 148.404L584.752 146.642ZM761.489 136.796L666.007 104.525L665.367 106.419L760.848 138.691L761.489 136.796ZM624.313 210.995L761.635 138.628L760.702 136.859L623.38 209.225L624.313 210.995Z" fill="white" mask="url(#path-7-inside-2_313_230)"/>
</g>
<path id="Vector_4" d="M774.695 125.737L774.691 125.744L774.687 125.752C768.351 136.34 755.651 143.111 741.858 143.111C735.514 143.111 728.081 141.181 721.695 138.272L584.389 65.9144C566.386 56.2609 560.069 34.0882 570.626 17.7296L570.206 17.4585L570.626 17.7296C581.203 1.33864 605.586 -4.47876 623.611 5.18606L623.614 5.18774L760.933 77.5528C778.936 87.2056 785.252 109.379 774.695 125.737Z" fill="#0F9D58" stroke="white"/>
<path id="Vector (Stroke)_4" d="M584.386 65.9125C566.386 56.2582 560.07 34.0871 570.626 17.7296L570.206 17.4585L570.626 17.7296C560.07 34.0869 566.385 56.258 584.386 65.9125ZM584.386 65.9125C584.387 65.9132 584.388 65.9136 584.389 65.9143L584.153 66.355L584.386 65.9127L584.386 65.9125Z" fill="black" stroke="white"/>
</g>
<g id="Google Developer Groups">
<path id="Vector_5" d="M486.211 173.487C485.224 173.144 484.247 172.832 483.28 172.553C482.341 172.261 481.502 171.939 480.76 171.589C480.058 171.247 479.502 170.864 479.082 170.447C478.729 170.056 478.548 169.583 478.548 169C478.548 168.096 478.907 167.378 479.66 166.809C480.441 166.233 481.55 165.916 483.04 165.916C484.01 165.916 484.824 166.019 485.491 166.216L485.491 166.216L485.495 166.217C486.22 166.424 486.854 166.66 487.399 166.923L487.406 166.926L487.413 166.929C487.984 167.183 488.479 167.414 488.897 167.623L488.897 167.623L488.905 167.627C489.402 167.864 489.892 167.996 490.368 167.996C490.786 167.996 491.174 167.923 491.504 167.743L491.519 167.735L491.533 167.726C491.852 167.523 492.124 167.212 492.36 166.834C492.36 166.833 492.36 166.833 492.36 166.833L494.152 163.986L494.366 163.646L494.079 163.363C492.788 162.095 491.183 161.08 489.275 160.312C487.352 159.539 485.229 159.156 482.912 159.156C480.842 159.156 478.992 159.439 477.371 160.016C475.785 160.567 474.436 161.322 473.335 162.288C472.257 163.231 471.434 164.346 470.87 165.631C470.309 166.911 470.028 168.26 470.028 169.672C470.028 171.172 470.26 172.481 470.742 173.584L470.742 173.584L470.746 173.592C471.239 174.669 471.883 175.587 472.681 176.34L472.681 176.34L472.686 176.345C473.491 177.082 474.395 177.695 475.397 178.185L475.397 178.185L475.409 178.191C476.405 178.646 477.412 179.047 478.431 179.393L478.434 179.394C479.461 179.737 480.456 180.058 481.42 180.357L481.42 180.358L481.432 180.361C482.392 180.632 483.227 180.942 483.942 181.29L483.942 181.29L483.947 181.292C484.672 181.634 485.221 182.026 485.615 182.457L485.615 182.457L485.623 182.466C485.992 182.851 486.188 183.35 486.188 184.008C486.188 184.448 486.097 184.882 485.91 185.313L485.91 185.313L485.906 185.323C485.75 185.704 485.485 186.054 485.094 186.371L485.094 186.371L485.085 186.379C484.718 186.691 484.224 186.962 483.586 187.182C482.989 187.373 482.246 187.476 481.344 187.476C480.185 187.476 479.255 187.341 478.536 187.089C477.789 186.819 477.143 186.531 476.595 186.227C476.026 185.911 475.523 185.617 475.084 185.346C474.581 185.02 474.03 184.852 473.44 184.852C472.887 184.852 472.386 184.96 471.967 185.211C471.572 185.448 471.242 185.784 470.973 186.2L470.969 186.207L470.965 186.213L469.141 189.221L468.926 189.575L469.234 189.852C469.901 190.452 470.665 191.005 471.522 191.511L471.522 191.511L471.527 191.513C472.406 192.019 473.349 192.457 474.355 192.829L474.358 192.83C475.387 193.202 476.447 193.487 477.54 193.683C478.659 193.903 479.799 194.012 480.96 194.012C483.134 194.012 485.066 193.74 486.749 193.187L486.752 193.186C488.445 192.614 489.881 191.827 491.048 190.818L491.048 190.818L491.052 190.815C492.215 189.785 493.092 188.573 493.677 187.179C494.281 185.769 494.58 184.24 494.58 182.6C494.58 181.221 494.336 180.011 493.826 178.988C493.35 177.993 492.702 177.14 491.884 176.434C491.099 175.717 490.203 175.135 489.2 174.689C488.225 174.234 487.229 173.834 486.211 173.487ZM486.211 173.487C486.211 173.487 486.21 173.487 486.21 173.487L486.048 173.96L486.213 173.488C486.212 173.488 486.212 173.487 486.211 173.487Z" fill="#656C73" stroke="white"/>
<path id="Vector_6" d="M453.064 184.445L453.064 184.445L453.06 184.452C452.445 185.304 451.699 185.929 450.822 186.339C449.936 186.752 448.932 186.964 447.801 186.964C446.626 186.964 445.541 186.752 444.541 186.332C443.627 185.94 442.756 185.273 441.933 184.306V169.947C442.894 168.792 443.901 167.909 444.952 167.286L444.952 167.286L444.958 167.283C446.016 166.636 447.319 166.3 448.889 166.3C449.873 166.3 450.726 166.48 451.459 166.828L451.459 166.828L451.464 166.83C452.206 167.173 452.844 167.718 453.374 168.485C453.903 169.248 454.32 170.27 454.609 171.572L454.609 171.572L454.611 171.582C454.919 172.854 455.077 174.433 455.077 176.328C455.077 178.196 454.899 179.805 454.549 181.162C454.199 182.502 453.7 183.591 453.064 184.445ZM455.671 192.648L455.673 192.647C457.487 191.74 459.027 190.489 460.288 188.896C461.568 187.307 462.544 185.437 463.222 183.295C463.9 181.15 464.237 178.826 464.237 176.328C464.237 173.605 463.935 171.18 463.323 169.056C462.733 166.919 461.877 165.11 460.744 163.642C459.634 162.156 458.296 161.017 456.73 160.233C455.183 159.449 453.473 159.06 451.609 159.06C449.236 159.06 447.145 159.544 445.352 160.53C443.87 161.345 442.522 162.371 441.308 163.604L440.867 161.505L440.861 161.477L440.852 161.45C440.666 160.893 440.364 160.435 439.924 160.121C439.485 159.807 438.952 159.668 438.361 159.668H433.529H433.029V160.168V203.72V204.22H433.529H441.433H441.933V203.72V191.397C442.782 192.089 443.711 192.659 444.719 193.105L444.719 193.105L444.725 193.108C446.104 193.696 447.742 193.98 449.625 193.98C451.848 193.98 453.866 193.539 455.671 192.648Z" fill="#656C73" stroke="white"/>
<path id="Vector_7" d="M424.192 160.168V159.668H423.692H415.788H415.288V160.168V183.703C414.298 184.668 413.258 185.43 412.169 185.994C411.046 186.555 409.844 186.836 408.556 186.836C406.802 186.836 405.564 186.326 404.746 185.381C403.929 184.391 403.488 182.964 403.488 181.032V160.168V159.668H402.988H395.084H394.584V160.168V181.032C394.584 182.909 394.824 184.645 395.31 186.234L395.31 186.234L395.312 186.242C395.821 187.813 396.566 189.183 397.55 190.347C398.538 191.515 399.751 192.423 401.182 193.071L401.182 193.072L401.19 193.075C402.65 193.704 404.308 194.012 406.156 194.012C408.417 194.012 410.407 193.584 412.112 192.709L412.117 192.706C413.523 191.966 414.827 191.04 416.027 189.928L416.386 191.661L416.39 191.68L416.396 191.699C416.558 192.261 416.847 192.726 417.286 193.045C417.723 193.362 418.261 193.5 418.86 193.5H423.692H424.192V193V160.168Z" fill="#656C73" stroke="white"/>
<path id="Vector_8" d="M377.99 192.761C380.058 191.947 381.826 190.778 383.287 189.251C384.768 187.725 385.902 185.882 386.692 183.732C387.483 181.578 387.875 179.172 387.875 176.52C387.875 173.889 387.483 171.493 386.692 169.34C385.902 167.189 384.767 165.356 383.284 163.85C381.824 162.346 380.057 161.188 377.99 160.375C375.94 159.56 373.669 159.156 371.183 159.156C368.675 159.156 366.383 159.559 364.311 160.375C362.245 161.188 360.468 162.346 358.986 163.849L358.986 163.849L358.984 163.852C357.523 165.357 356.39 167.187 355.579 169.335L355.579 169.335L355.577 169.34C354.786 171.493 354.395 173.889 354.395 176.52C354.395 179.172 354.786 181.578 355.577 183.732L355.577 183.732L355.579 183.737C356.39 185.884 357.522 187.724 358.981 189.25L358.984 189.252C360.465 190.778 362.243 191.947 364.311 192.761C366.383 193.577 368.675 193.98 371.183 193.98C373.669 193.98 375.94 193.577 377.99 192.761ZM377.99 192.761C377.99 192.761 377.99 192.761 377.99 192.761L377.807 192.296M377.99 192.761C377.991 192.761 377.991 192.761 377.991 192.761L377.807 192.296M377.807 192.296C375.823 193.085 373.615 193.48 371.183 193.48C368.729 193.48 366.5 193.085 364.495 192.296C362.489 191.507 360.772 190.376 359.343 188.904M377.807 192.296C379.812 191.507 381.519 190.376 382.927 188.904C384.356 187.432 385.455 185.651 386.223 183.56C386.991 181.469 387.375 179.123 387.375 176.52C387.375 173.939 386.991 171.603 386.223 169.512C385.455 167.421 384.356 165.651 382.927 164.2L359.343 188.904M359.343 188.904C357.935 187.432 356.836 185.651 356.047 183.56C355.279 181.469 354.895 179.123 354.895 176.52C354.895 173.939 355.279 171.603 356.047 169.512L359.343 188.904ZM376.825 184.356L376.823 184.359C375.636 186.032 373.79 186.9 371.183 186.9C368.531 186.9 366.641 186.031 365.412 184.355C364.176 182.619 363.523 180.051 363.523 176.584C363.523 173.115 364.176 170.547 365.413 168.811C366.644 167.092 368.534 166.204 371.183 166.204C373.788 166.204 375.633 167.081 376.821 168.775L376.823 168.778C378.061 170.514 378.715 173.093 378.715 176.584C378.715 180.076 378.06 182.642 376.825 184.356Z" fill="#656C73" stroke="white"/>
<path id="Vector_9" d="M351.959 160.595L351.983 160.312L351.753 160.146C350.726 159.406 349.397 159.06 347.813 159.06C345.787 159.06 344.012 159.659 342.51 160.865C341.371 161.762 340.362 162.919 339.478 164.325L339.189 162.088L339.189 162.088L339.188 162.081C339.077 161.303 338.842 160.643 338.387 160.244C337.922 159.815 337.194 159.668 336.357 159.668H331.717H331.217V160.168V193V193.5H331.717H339.621H340.121V193V172.876C340.464 172.059 340.824 171.334 341.2 170.7C341.603 170.055 342.052 169.52 342.543 169.087L342.544 169.087C343.054 168.636 343.62 168.294 344.244 168.06C344.861 167.829 345.578 167.708 346.405 167.708C346.972 167.708 347.552 167.759 348.144 167.861L348.147 167.861C348.792 167.969 349.306 168.028 349.669 168.028C350.077 168.028 350.467 167.939 350.776 167.699L350.776 167.699L350.781 167.694C351.106 167.434 351.308 167.047 351.431 166.606L351.443 166.561L351.447 166.515L351.959 160.595Z" fill="#656C73" stroke="white"/>
<path id="Vector_10" d="M323.671 169.8V169.3H323.171H307.811H307.311V169.8V174.664C307.311 175.235 307.507 175.742 307.894 176.157L307.906 176.17L307.918 176.182C308.354 176.588 308.925 176.764 309.571 176.764H314.895V184.332C313.733 184.874 312.544 185.309 311.329 185.637C310.036 185.986 308.556 186.164 306.883 186.164C304.547 186.164 302.445 185.799 300.569 185.078C298.693 184.336 297.091 183.277 295.757 181.903C294.444 180.507 293.412 178.808 292.665 176.797C291.942 174.77 291.575 172.461 291.575 169.864C291.575 167.437 291.921 165.254 292.603 163.31C293.287 161.361 294.257 159.704 295.509 158.329C296.76 156.955 298.267 155.898 300.036 155.158C301.823 154.418 303.826 154.044 306.051 154.044C307.438 154.044 308.645 154.139 309.675 154.324L309.677 154.324C310.744 154.513 311.687 154.752 312.51 155.04L312.514 155.041C313.362 155.331 314.121 155.67 314.794 156.057L315.85 156.665L316.899 157.27C317.692 157.758 318.493 157.971 319.273 157.81L319.281 157.808L319.289 157.806C320.053 157.622 320.657 157.145 321.099 156.433C321.1 156.433 321.1 156.432 321.1 156.432L323.562 152.531L323.783 152.181L323.481 151.898C322.498 150.982 321.419 150.142 320.243 149.38C319.058 148.612 317.745 147.967 316.307 147.444C314.889 146.899 313.345 146.475 311.677 146.172C310.023 145.867 308.243 145.716 306.339 145.716C302.597 145.716 299.206 146.3 296.174 147.478C293.149 148.653 290.561 150.311 288.418 152.454L288.416 152.456C286.296 154.598 284.66 157.153 283.506 160.114C282.35 163.08 281.775 166.332 281.775 169.864C281.775 173.357 282.372 176.589 283.572 179.555C284.77 182.519 286.472 185.074 288.679 187.215L288.681 187.217C290.909 189.357 293.58 191.023 296.688 192.219L296.689 192.219C299.826 193.417 303.311 194.012 307.139 194.012C310.212 194.012 313.098 193.612 315.794 192.807L315.797 192.806C318.52 191.978 321.078 190.683 323.468 188.923L323.671 188.773V188.52V169.8Z" fill="#34A853" stroke="white"/>
<path id="Vector_11" d="M544.115 99.5951L544.14 99.3124L543.909 99.1464C542.882 98.4059 541.554 98.06 539.969 98.06C537.944 98.06 536.168 98.659 534.666 99.8647C533.527 100.762 532.518 101.919 531.634 103.325L531.345 101.088L531.345 101.088L531.344 101.081C531.233 100.303 530.998 99.6428 530.543 99.2442C530.078 98.8153 529.35 98.668 528.513 98.668H523.873H523.373V99.168V132V132.5H523.873H531.777H532.277V132V111.876C532.62 111.059 532.98 110.334 533.356 109.7C533.76 109.055 534.208 108.52 534.699 108.087L534.7 108.086C535.21 107.636 535.776 107.294 536.401 107.06C537.017 106.829 537.735 106.708 538.561 106.708C539.129 106.708 539.708 106.759 540.3 106.861L540.303 106.861C540.948 106.969 541.462 107.028 541.825 107.028C542.234 107.028 542.623 106.939 542.932 106.699L542.932 106.699L542.937 106.694C543.263 106.434 543.464 106.047 543.587 105.606L543.599 105.561L543.603 105.515L544.115 99.5951Z" fill="#656C73" stroke="white"/>
<path id="Vector_12" d="M507.911 109.073L507.911 109.073L507.915 109.086C508.147 109.781 508.284 110.521 508.325 111.308H494.519C494.909 109.278 495.671 107.73 496.774 106.627C497.982 105.439 499.647 104.82 501.83 104.82C502.946 104.82 503.895 105.013 504.691 105.382L504.698 105.385L504.705 105.388C505.536 105.744 506.206 106.233 506.727 106.85C507.256 107.477 507.652 108.216 507.911 109.073ZM505.902 125.444L505.899 125.445C505.045 125.723 504.001 125.868 502.758 125.868C501.53 125.868 500.417 125.684 499.413 125.324C498.436 124.944 497.593 124.388 496.878 123.654C496.163 122.898 495.578 121.945 495.129 120.781C494.73 119.73 494.456 118.497 494.312 117.076H514.086C514.889 117.076 515.592 116.85 515.98 116.235L515.98 116.235L515.986 116.225C516.162 115.933 516.271 115.551 516.339 115.118C516.409 114.678 516.442 114.149 516.442 113.536C516.442 111.119 516.072 108.954 515.32 107.051C514.594 105.139 513.577 103.521 512.265 102.208C510.953 100.875 509.388 99.8659 507.574 99.1803C505.763 98.4955 503.793 98.156 501.67 98.156C499.158 98.156 496.88 98.5931 494.846 99.4775L494.844 99.4783C492.844 100.358 491.133 101.559 489.719 103.084L489.719 103.084C488.327 104.587 487.259 106.362 486.512 108.403C485.765 110.425 485.394 112.585 485.394 114.88C485.394 117.807 485.816 120.408 486.674 122.673L486.675 122.675C487.528 124.906 488.704 126.801 490.207 128.348L490.209 128.351C491.71 129.874 493.477 131.033 495.503 131.826L495.508 131.827C497.532 132.597 499.715 132.98 502.054 132.98C503.23 132.98 504.437 132.893 505.674 132.719C506.944 132.544 508.181 132.249 509.385 131.833L509.39 131.831C510.619 131.392 511.793 130.821 512.911 130.12L512.911 130.12L512.917 130.116C514.047 129.385 515.065 128.488 515.97 127.429L516.236 127.117L515.982 126.794L513.723 123.931C513.297 123.292 512.642 122.988 511.846 122.988C511.251 122.988 510.655 123.169 510.065 123.5L510.065 123.5L510.058 123.504C509.555 123.797 508.955 124.124 508.257 124.484L508.257 124.483L508.251 124.486C507.601 124.832 506.819 125.152 505.902 125.444Z" fill="#656C73" stroke="white"/>
<path id="Vector_13" d="M468.845 123.445L468.845 123.445L468.841 123.452C468.226 124.304 467.481 124.929 466.603 125.339C465.717 125.752 464.714 125.964 463.583 125.964C462.408 125.964 461.323 125.752 460.322 125.332C459.408 124.94 458.538 124.273 457.715 123.306V108.947C458.675 107.792 459.683 106.909 460.733 106.286L460.733 106.286L460.739 106.283C461.797 105.636 463.1 105.3 464.671 105.3C465.654 105.3 466.507 105.48 467.241 105.828L467.241 105.828L467.245 105.83C467.988 106.173 468.625 106.718 469.155 107.485C469.684 108.248 470.101 109.27 470.39 110.572L470.39 110.572L470.393 110.582C470.7 111.854 470.859 113.433 470.859 115.328C470.859 117.196 470.68 118.805 470.331 120.162C469.98 121.502 469.481 122.591 468.845 123.445ZM471.452 131.648L471.454 131.647C473.268 130.74 474.808 129.489 476.069 127.896C477.349 126.307 478.326 124.437 479.003 122.295C479.682 120.15 480.019 117.826 480.019 115.328C480.019 112.605 479.716 110.18 479.104 108.056C478.515 105.919 477.658 104.11 476.525 102.642C475.415 101.156 474.078 100.017 472.511 99.2334C470.964 98.4487 469.254 98.06 467.391 98.06C465.018 98.06 462.927 98.5438 461.134 99.5299C459.651 100.345 458.303 101.371 457.09 102.604L456.648 100.505L456.642 100.477L456.633 100.45C456.447 99.8926 456.145 99.4353 455.705 99.1211C455.266 98.8073 454.733 98.668 454.143 98.668H449.311H448.811V99.168V142.72V143.22H449.311H457.215H457.715V142.72V130.397C458.563 131.089 459.492 131.659 460.5 132.105L460.5 132.105L460.506 132.108C461.885 132.696 463.524 132.98 465.407 132.98C467.629 132.98 469.647 132.539 471.452 131.648Z" fill="#656C73" stroke="white"/>
<path id="Vector_14" d="M431.896 131.761C433.964 130.947 435.732 129.778 437.193 128.251C438.674 126.725 439.808 124.882 440.598 122.732C441.389 120.578 441.781 118.172 441.781 115.52C441.781 112.889 441.389 110.494 440.598 108.34C439.808 106.189 438.673 104.356 437.19 102.85C435.73 101.346 433.963 100.188 431.897 99.3751C429.847 98.5595 427.575 98.156 425.089 98.156C422.581 98.156 420.289 98.5595 418.218 99.3747C416.151 100.188 414.374 101.346 412.893 102.849L412.893 102.849L412.89 102.852C411.429 104.357 410.296 106.187 409.485 108.335L409.485 108.335L409.483 108.34C408.692 110.494 408.301 112.889 408.301 115.52C408.301 118.172 408.692 120.578 409.483 122.732L409.483 122.732L409.485 122.737C410.296 124.884 411.429 126.724 412.887 128.25L412.89 128.252C414.371 129.778 416.15 130.947 418.218 131.761C420.289 132.577 422.581 132.98 425.089 132.98C427.575 132.98 429.846 132.577 431.896 131.761ZM431.896 131.761C431.896 131.761 431.896 131.761 431.896 131.761L431.713 131.296M431.896 131.761C431.897 131.761 431.897 131.761 431.898 131.761L431.713 131.296M431.713 131.296C429.729 132.085 427.521 132.48 425.089 132.48C422.635 132.48 420.406 132.085 418.401 131.296C416.395 130.507 414.678 129.376 413.249 127.904M431.713 131.296C433.718 130.507 435.425 129.376 436.833 127.904C438.262 126.432 439.361 124.651 440.129 122.56C440.897 120.469 441.281 118.123 441.281 115.52C441.281 112.939 440.897 110.603 440.129 108.512C439.361 106.421 438.262 104.651 436.833 103.2L413.249 127.904M413.249 127.904C411.841 126.432 410.742 124.651 409.953 122.56C409.185 120.469 408.801 118.123 408.801 115.52C408.801 112.939 409.185 110.603 409.953 108.512L413.249 127.904ZM430.731 123.356L430.729 123.359C429.542 125.032 427.697 125.9 425.089 125.9C422.437 125.9 420.547 125.031 419.318 123.355C418.082 121.619 417.429 119.051 417.429 115.584C417.429 112.115 418.082 109.547 419.32 107.811C420.55 106.092 422.44 105.204 425.089 105.204C427.694 105.204 429.539 106.081 430.727 107.775L430.73 107.778C431.967 109.514 432.621 112.093 432.621 115.584C432.621 119.076 431.967 121.642 430.731 123.356Z" fill="#656C73" stroke="white"/>
<path id="Vector_15" d="M401.185 84.448V83.948H400.685H392.781H392.281V84.448V132V132.5H392.781H400.685H401.185V132V84.448Z" fill="#656C73" stroke="white"/>
<path id="Vector_16" d="M376.723 109.073L376.723 109.073L376.728 109.086C376.959 109.781 377.097 110.521 377.137 111.308H363.331C363.722 109.278 364.484 107.73 365.586 106.627C366.795 105.439 368.459 104.82 370.642 104.82C371.758 104.82 372.708 105.013 373.504 105.382L373.51 105.385L373.517 105.388C374.348 105.744 375.019 106.233 375.54 106.85C376.069 107.477 376.464 108.216 376.723 109.073ZM374.714 125.444L374.711 125.445C373.857 125.723 372.814 125.868 371.57 125.868C370.343 125.868 369.229 125.684 368.225 125.324C367.249 124.944 366.406 124.388 365.691 123.654C364.976 122.898 364.39 121.945 363.941 120.781C363.542 119.73 363.268 118.497 363.124 117.076H382.898C383.701 117.076 384.404 116.85 384.793 116.235L384.793 116.235L384.799 116.225C384.974 115.933 385.084 115.551 385.152 115.118C385.221 114.678 385.254 114.149 385.254 113.536C385.254 111.119 384.884 108.954 384.132 107.051C383.406 105.139 382.39 103.521 381.077 102.208C379.766 100.875 378.2 99.8659 376.387 99.1803C374.575 98.4955 372.605 98.156 370.482 98.156C367.97 98.156 365.693 98.5931 363.659 99.4775L363.657 99.4783C361.657 100.358 359.946 101.559 358.531 103.084L358.531 103.084C357.139 104.587 356.071 106.362 355.325 108.403C354.578 110.425 354.206 112.585 354.206 114.88C354.206 117.807 354.629 120.408 355.486 122.673L355.487 122.675C356.34 124.906 357.516 126.801 359.019 128.348L359.022 128.351C360.523 129.874 362.289 131.033 364.316 131.826L364.32 131.827C366.344 132.597 368.528 132.98 370.866 132.98C372.043 132.98 373.25 132.893 374.487 132.719C375.756 132.544 376.993 132.249 378.197 131.833L378.202 131.831C379.431 131.392 380.605 130.821 381.724 130.12L381.724 130.12L381.73 130.116C382.86 129.385 383.877 128.488 384.782 127.429L385.049 127.117L384.795 126.794L382.536 123.931C382.11 123.292 381.455 122.988 380.658 122.988C380.063 122.988 379.468 123.169 378.878 123.5L378.878 123.5L378.87 123.504C378.368 123.797 377.768 124.124 377.069 124.484L377.069 124.483L377.063 124.486C376.413 124.832 375.632 125.152 374.714 125.444Z" fill="#656C73" stroke="white"/>
<path id="Vector_17" d="M351.75 99.3524L352.022 98.668H351.285H345.045C344.421 98.668 343.856 98.8322 343.377 99.1787C342.915 99.5119 342.584 99.9446 342.399 100.471L335.936 118.003L335.936 118.003L335.934 118.009C335.567 119.046 335.253 120.062 334.994 121.058C334.923 121.326 334.855 121.595 334.788 121.863C334.723 121.595 334.655 121.326 334.585 121.058C334.326 120.065 334.024 119.052 333.68 118.018L333.68 118.018L333.676 118.006L327.344 100.482C327.179 99.9432 326.839 99.5064 326.357 99.1749C325.869 98.8242 325.27 98.668 324.597 98.668H318.069H317.333L317.605 99.3524L330.629 132.184L330.754 132.5H331.093H338.261H338.601L338.726 132.184L351.75 99.3524Z" fill="#656C73" stroke="white"/>
<path id="Vector_18" d="M306.536 109.073L306.536 109.073L306.54 109.086C306.772 109.781 306.909 110.521 306.95 111.308H293.144C293.534 109.278 294.296 107.73 295.399 106.627C296.607 105.439 298.272 104.82 300.455 104.82C301.571 104.82 302.52 105.013 303.316 105.382L303.323 105.385L303.33 105.388C304.161 105.744 304.831 106.233 305.352 106.85C305.881 107.477 306.277 108.216 306.536 109.073ZM304.527 125.444L304.524 125.445C303.67 125.723 302.626 125.868 301.383 125.868C300.155 125.868 299.042 125.684 298.038 125.324C297.061 124.944 296.218 124.388 295.503 123.654C294.788 122.898 294.203 121.945 293.754 120.781C293.355 119.73 293.081 118.497 292.937 117.076H312.711C313.514 117.076 314.217 116.85 314.605 116.235L314.605 116.235L314.611 116.225C314.787 115.933 314.896 115.551 314.964 115.118C315.034 114.678 315.067 114.149 315.067 113.536C315.067 111.119 314.697 108.954 313.945 107.051C313.219 105.139 312.202 103.521 310.89 102.208C309.578 100.875 308.013 99.8659 306.199 99.1803C304.388 98.4955 302.418 98.156 300.295 98.156C297.783 98.156 295.505 98.5931 293.471 99.4775L293.469 99.4783C291.469 100.358 289.758 101.559 288.344 103.084L288.344 103.084C286.952 104.587 285.884 106.362 285.137 108.403C284.39 110.425 284.019 112.585 284.019 114.88C284.019 117.807 284.441 120.408 285.299 122.673L285.3 122.675C286.153 124.906 287.329 126.801 288.832 128.348L288.834 128.351C290.335 129.874 292.102 131.033 294.128 131.826L294.133 131.827C296.157 132.597 298.34 132.98 300.679 132.98C301.855 132.98 303.062 132.893 304.299 132.719C305.569 132.544 306.806 132.249 308.01 131.833L308.015 131.831C309.244 131.392 310.418 130.821 311.536 130.12L311.536 130.12L311.542 130.116C312.672 129.385 313.69 128.488 314.595 127.429L314.861 127.117L314.607 126.794L312.348 123.931C311.922 123.292 311.267 122.988 310.471 122.988C309.876 122.988 309.28 123.169 308.69 123.5L308.69 123.5L308.683 123.504C308.18 123.797 307.58 124.124 306.882 124.484L306.882 124.483L306.876 124.486C306.226 124.832 305.444 125.152 304.527 125.444Z" fill="#656C73" stroke="white"/>
<path id="Vector_19" d="M236.809 132V132.5H237.309H254.941C258.515 132.5 261.778 131.926 264.723 130.769C267.663 129.615 270.186 127.989 272.286 125.89C274.385 123.791 276.011 121.29 277.165 118.393C278.322 115.491 278.897 112.312 278.897 108.864C278.897 105.416 278.322 102.237 277.165 99.3349C276.011 96.4381 274.385 93.9474 272.285 91.8697C270.186 89.7705 267.663 88.145 264.725 86.9912C261.779 85.813 258.515 85.228 254.941 85.228H237.309H236.809V85.728V132ZM268.065 102.203L268.065 102.203L268.067 102.209C268.729 104.153 269.065 106.37 269.065 108.864C269.065 111.358 268.729 113.586 268.067 115.552L268.066 115.555C267.424 117.501 266.487 119.145 265.259 120.496L265.258 120.496C264.052 121.825 262.578 122.85 260.83 123.57L260.828 123.57C259.106 124.288 257.147 124.652 254.941 124.652H246.449V93.076H254.941C257.147 93.076 259.106 93.4401 260.828 94.1575L260.83 94.1583C262.577 94.8774 264.049 95.9117 265.256 97.2612L265.256 97.2613L265.261 97.2671C266.486 98.5945 267.423 100.236 268.065 102.203Z" fill="#4285F4" stroke="white"/>
<path id="Vector_20" d="M484.536 48.0727L484.536 48.0728L484.54 48.0861C484.772 48.7815 484.909 49.5215 484.95 50.308H471.144C471.534 48.2776 472.296 46.7304 473.399 45.627C474.607 44.4388 476.272 43.82 478.455 43.82C479.571 43.82 480.52 44.0127 481.316 44.3817L481.323 44.3847L481.33 44.3876C482.161 44.7438 482.831 45.2326 483.352 45.8504C483.881 46.4773 484.277 47.2157 484.536 48.0727ZM482.527 64.4435L482.524 64.4446C481.67 64.7226 480.626 64.868 479.383 64.868C478.155 64.868 477.042 64.6844 476.038 64.3236C475.061 63.9442 474.218 63.388 473.503 62.6537C472.788 61.8983 472.203 60.9447 471.754 59.7813C471.355 58.7299 471.081 57.4967 470.937 56.076H490.711C491.514 56.076 492.217 55.85 492.605 55.235L492.605 55.2351L492.611 55.2253C492.787 54.9326 492.896 54.5509 492.964 54.118C493.034 53.6781 493.067 53.1488 493.067 52.536C493.067 50.1187 492.697 47.9542 491.945 46.0514C491.219 44.1391 490.202 42.5211 488.89 41.2079C487.578 39.8749 486.013 38.8659 484.199 38.1803C482.388 37.4955 480.418 37.156 478.295 37.156C475.783 37.156 473.505 37.5931 471.471 38.4775L471.469 38.4783C469.469 39.3575 467.758 40.5591 466.344 42.084L466.344 42.0842C464.952 43.5866 463.884 45.3618 463.137 47.4035C462.39 49.4252 462.019 51.5853 462.019 53.88C462.019 56.8073 462.441 59.408 463.299 61.6731L463.3 61.6746C464.153 63.9064 465.329 65.8009 466.832 67.3484L466.834 67.351C468.335 68.874 470.102 70.0326 472.128 70.8256L472.133 70.8273C474.157 71.5974 476.34 71.98 478.679 71.98C479.855 71.98 481.062 71.8929 482.299 71.7193C483.569 71.5442 484.806 71.2486 486.01 70.8326L486.015 70.8309C487.244 70.3919 488.418 69.8212 489.536 69.1195L489.536 69.1196L489.542 69.1158C490.672 68.3845 491.69 67.4881 492.595 66.4288L492.861 66.1166L492.607 65.7943L490.348 62.931C489.922 62.2922 489.267 61.988 488.471 61.988C487.876 61.988 487.28 62.1694 486.69 62.4998L486.69 62.4997L486.683 62.5041C486.18 62.7972 485.58 63.1236 484.882 63.4835L484.882 63.4835L484.876 63.4865C484.226 63.8318 483.444 64.1516 482.527 64.4435Z" fill="#656C73" stroke="white"/>
<path id="Vector_21" d="M454.935 23.448V22.948H454.435H446.531H446.031V23.448V71V71.5H446.531H454.435H454.935V71V23.448Z" fill="#656C73" stroke="white"/>
<path id="Vector_22" d="M426.63 51.9187L426.629 51.9186L426.622 51.9264C426.211 52.3371 425.679 52.6745 425.011 52.9306C424.352 53.162 423.56 53.284 422.623 53.284C421.71 53.284 420.916 53.1627 420.234 52.9298C419.569 52.6748 419.026 52.3383 418.593 51.9263C418.176 51.4887 417.852 50.9743 417.62 50.3781C417.408 49.7771 417.299 49.1217 417.299 48.408C417.299 46.8913 417.744 45.751 418.589 44.9255L418.589 44.9254C419.444 44.0889 420.758 43.628 422.623 43.628C424.489 43.628 425.789 44.0893 426.622 44.9215L426.621 44.9216L426.63 44.9293C427.493 45.7556 427.947 46.8945 427.947 48.408C427.947 49.1426 427.828 49.8059 427.597 50.4035L427.594 50.4101L427.592 50.4168C427.382 51.007 427.062 51.5052 426.63 51.9187ZM429.24 70.4472L429.247 70.4496L429.254 70.4519C429.854 70.6456 430.298 70.9165 430.612 71.2479C430.895 71.5467 431.051 71.9398 431.051 72.472C431.051 73.0241 430.914 73.5214 430.642 73.9747L430.642 73.9747L430.638 73.9821C430.374 74.4393 429.939 74.8501 429.296 75.201L429.288 75.2054L429.28 75.2101C428.66 75.578 427.843 75.8716 426.813 76.0777L426.813 76.0776L426.804 76.0797C425.782 76.3044 424.551 76.42 423.103 76.42C421.674 76.42 420.485 76.3147 419.527 76.1109L419.527 76.1108L419.517 76.1089C418.551 75.9238 417.787 75.6616 417.209 75.3348C416.652 75.0077 416.264 74.6287 416.017 74.207C415.784 73.7939 415.667 73.3466 415.667 72.856C415.667 72.0935 415.896 71.4383 416.353 70.8696C416.834 70.2978 417.451 69.7869 418.215 69.3409C419.179 69.4592 420.161 69.5387 421.163 69.5796L421.163 69.5796C422.226 69.6221 423.246 69.6752 424.223 69.7389L424.223 69.7391L424.234 69.7395C425.225 69.7817 426.151 69.8554 427.011 69.9603L427.012 69.9605C427.881 70.0639 428.622 70.2279 429.24 70.4472ZM439.923 39.288V38.788H439.423H430.108C429.072 38.2404 427.936 37.8294 426.704 37.553C425.426 37.2448 424.065 37.092 422.623 37.092C420.702 37.092 418.913 37.3431 417.261 37.85L417.259 37.8505C415.627 38.3578 414.194 39.1 412.967 40.0812C411.758 41.044 410.806 42.2211 410.112 43.6084L410.112 43.6084L410.11 43.6113C409.433 44.9891 409.099 46.5273 409.099 48.216C409.099 50.3023 409.588 52.1465 410.584 53.7301L410.584 53.7301L410.587 53.7344C411.44 55.0627 412.558 56.1631 413.933 57.0359C413.493 57.3047 413.092 57.5982 412.729 57.9168C412.169 58.3883 411.692 58.898 411.303 59.447L411.299 59.4528L411.295 59.4586C410.933 60.0015 410.647 60.5601 410.441 61.1346L410.441 61.1346L410.437 61.1459C410.251 61.7038 410.155 62.2585 410.155 62.808C410.155 64.091 410.425 65.1807 411.011 66.0348C411.39 66.588 411.859 67.0639 412.412 67.4631C411.15 68.0541 410.105 68.7993 409.291 69.7059L409.291 69.7064C408.281 70.833 407.787 72.2364 407.787 73.88C407.787 75.1033 408.111 76.2763 408.749 77.3921C409.393 78.5186 410.36 79.4901 411.628 80.3137C412.902 81.1622 414.481 81.8207 416.353 82.2997C418.239 82.804 420.438 83.052 422.943 83.052C425.502 83.052 427.797 82.7161 429.82 82.0348C431.847 81.3806 433.566 80.5027 434.964 79.3929C436.378 78.2884 437.461 77.0195 438.202 75.5838C438.962 74.152 439.347 72.6648 439.347 71.128C439.347 69.5104 439.027 68.142 438.345 67.0587C437.705 65.9856 436.844 65.1366 435.768 64.5184C434.714 63.9129 433.522 63.4798 432.197 63.2145C430.896 62.9327 429.563 62.7378 428.199 62.6296C426.846 62.5222 425.525 62.4577 424.236 62.4361C422.969 62.3938 421.845 62.3095 420.862 62.184C419.896 62.0607 419.146 61.8591 418.594 61.5944C418.365 61.47 418.216 61.3264 418.122 61.172C418.027 61.0163 417.971 60.8211 417.971 60.568C417.971 60.0872 418.266 59.5609 419.108 59.0144C419.635 59.1074 420.17 59.1829 420.714 59.2411C421.33 59.3072 421.966 59.34 422.623 59.34C424.482 59.34 426.218 59.0885 427.829 58.5809L427.829 58.5809L427.833 58.5796C429.462 58.0514 430.882 57.3103 432.087 56.3511C433.295 55.3889 434.238 54.2222 434.911 52.8542C435.61 51.456 435.955 49.9068 435.955 48.216C435.955 47.0348 435.789 45.9245 435.453 44.8887L437.818 44.4517L437.82 44.4513C438.444 44.3335 438.977 44.1042 439.356 43.7182C439.745 43.3215 439.923 42.8093 439.923 42.232V39.288Z" fill="#656C73" stroke="white"/>
<path id="Vector_23" d="M393.459 70.7611C395.527 69.9471 397.295 68.7775 398.755 67.2509C400.237 65.7248 401.371 63.8825 402.161 61.7324C402.952 59.5781 403.343 57.1718 403.343 54.52C403.343 51.889 402.952 49.4935 402.161 47.3396C401.371 45.189 400.236 43.3562 398.753 41.8504C397.292 40.3462 395.525 39.1885 393.459 38.3751C391.409 37.5596 389.137 37.156 386.651 37.156C384.144 37.156 381.851 37.5595 379.78 38.3748C377.714 39.1882 375.936 40.3458 374.455 41.8491L374.455 41.8491L374.452 41.8518C372.992 43.3565 371.858 45.1874 371.047 47.3354L371.047 47.3354L371.046 47.3396C370.255 49.4935 369.863 51.889 369.863 54.52C369.863 57.1718 370.255 59.5781 371.046 61.7324L371.046 61.7324L371.047 61.7366C371.858 63.8841 372.991 65.7245 374.45 67.2496L374.453 67.2523C375.934 68.7779 377.712 69.9472 379.78 70.7613C381.851 71.5765 384.144 71.98 386.651 71.98C389.137 71.98 391.409 71.5765 393.459 70.7611ZM393.459 70.7611C393.459 70.7612 393.459 70.7612 393.458 70.7613L393.275 70.296M393.459 70.7611C393.459 70.7609 393.46 70.7608 393.46 70.7606L393.275 70.296M393.275 70.296C391.291 71.0853 389.083 71.48 386.651 71.48C384.198 71.48 381.969 71.0853 379.963 70.296C377.958 69.5067 376.241 68.376 374.811 66.904M393.275 70.296C395.281 69.5067 396.987 68.376 398.395 66.904C399.825 65.432 400.923 63.6507 401.691 61.56C402.459 59.4693 402.843 57.1227 402.843 54.52C402.843 51.9387 402.459 49.6027 401.691 47.512C400.923 45.4213 399.825 43.6507 398.395 42.2L374.811 66.904M374.811 66.904C373.403 65.432 372.305 63.6507 371.515 61.56C370.747 59.4693 370.363 57.1227 370.363 54.52C370.363 51.9387 370.747 49.6027 371.515 47.512L374.811 66.904ZM392.294 62.3556L392.291 62.3587C391.104 64.0322 389.259 64.9 386.651 64.9C383.999 64.9 382.109 64.0308 380.881 62.3551C379.644 60.6187 378.991 58.0511 378.991 54.584C378.991 51.1153 379.645 48.547 380.882 46.8105C382.113 45.092 384.003 44.204 386.651 44.204C389.257 44.204 391.102 45.0808 392.29 46.7751L392.292 46.7782C393.529 48.5143 394.183 51.093 394.183 54.584C394.183 58.0756 393.529 60.642 392.294 62.3556Z" fill="#656C73" stroke="white"/>
<path id="Vector_24" d="M354.709 70.7611C356.777 69.9471 358.545 68.7775 360.005 67.2509C361.487 65.7248 362.621 63.8825 363.411 61.7324C364.202 59.5781 364.593 57.1718 364.593 54.52C364.593 51.889 364.202 49.4935 363.411 47.3396C362.621 45.189 361.486 43.3562 360.003 41.8504C358.542 40.3462 356.775 39.1885 354.709 38.3751C352.659 37.5596 350.388 37.156 347.901 37.156C345.394 37.156 343.101 37.5595 341.03 38.3748C338.964 39.1882 337.186 40.3458 335.705 41.8491L335.705 41.8491L335.702 41.8518C334.242 43.3565 333.108 45.1875 332.298 47.3354L332.297 47.3354L332.296 47.3396C331.505 49.4935 331.113 51.889 331.113 54.52C331.113 57.1718 331.505 59.5781 332.296 61.7324L332.296 61.7324L332.298 61.7366C333.108 63.8841 334.241 65.7245 335.7 67.2496L335.703 67.2523C337.184 68.7779 338.962 69.9472 341.03 70.7613C343.101 71.5765 345.394 71.98 347.901 71.98C350.387 71.98 352.659 71.5765 354.709 70.7611ZM354.709 70.7611C354.709 70.7612 354.709 70.7612 354.708 70.7613L354.525 70.296M354.709 70.7611C354.709 70.7609 354.71 70.7608 354.71 70.7606L354.525 70.296M354.525 70.296C352.541 71.0853 350.333 71.48 347.901 71.48C345.448 71.48 343.219 71.0853 341.213 70.296C339.208 69.5067 337.491 68.376 336.061 66.904M354.525 70.296C356.531 69.5067 358.237 68.376 359.645 66.904C361.075 65.432 362.173 63.6507 362.941 61.56C363.709 59.4693 364.093 57.1227 364.093 54.52C364.093 51.9387 363.709 49.6027 362.941 47.512C362.173 45.4213 361.075 43.6507 359.645 42.2L336.061 66.904M336.061 66.904C334.653 65.432 333.555 63.6507 332.765 61.56C331.997 59.4693 331.613 57.1227 331.613 54.52C331.613 51.9387 331.997 49.6027 332.765 47.512L336.061 66.904ZM353.544 62.3556L353.541 62.3587C352.354 64.0322 350.509 64.9 347.901 64.9C345.249 64.9 343.359 64.0308 342.131 62.3551C340.894 60.6187 340.241 58.0511 340.241 54.584C340.241 51.1153 340.895 48.547 342.132 46.8105C343.363 45.092 345.253 44.204 347.901 44.204C350.507 44.204 352.352 45.0808 353.54 46.7751L353.542 46.7782C354.779 48.5143 355.433 51.093 355.433 54.584C355.433 58.0756 354.779 60.642 353.544 62.3556Z" fill="#656C73" stroke="white"/>
<path id="Vector_25" d="M325.203 47.8V47.3H324.703H309.343H308.843V47.8V52.664C308.843 53.2354 309.038 53.7422 309.425 54.1572L309.437 54.1698L309.449 54.1815C309.885 54.588 310.457 54.764 311.103 54.764H316.427V62.332C315.264 62.8745 314.075 63.3095 312.86 63.6373C311.567 63.9862 310.087 64.164 308.415 64.164C306.079 64.164 303.976 63.7992 302.1 63.0782C300.224 62.3356 298.622 61.2767 297.288 59.9026C295.975 58.5068 294.943 56.8078 294.197 54.797C293.473 52.7702 293.107 50.4615 293.107 47.864C293.107 45.4367 293.452 43.2538 294.134 41.3096C294.818 39.3612 295.788 37.7036 297.04 36.3286C298.291 34.955 299.798 33.8982 301.567 33.1576C303.354 32.4181 305.357 32.044 307.583 32.044C308.969 32.044 310.176 32.1386 311.206 32.3241L311.208 32.3244C312.275 32.5127 313.219 32.7519 314.041 33.0399L314.045 33.0412C314.893 33.3308 315.653 33.6701 316.325 34.0573L317.381 34.6653L318.431 35.2695C319.224 35.7578 320.024 35.971 320.804 35.8096L320.812 35.808L320.82 35.806C321.585 35.6215 322.188 35.1452 322.631 34.4331C322.631 34.4326 322.631 34.4322 322.631 34.4317L325.093 30.5309L325.314 30.1809L325.012 29.8985C324.029 28.9816 322.95 28.1423 321.775 27.3804C320.589 26.6122 319.276 25.9671 317.838 25.4437C316.42 24.8987 314.876 24.4754 313.209 24.1722C311.554 23.8674 309.774 23.716 307.871 23.716C304.128 23.716 300.737 24.3002 297.706 25.4779C294.681 26.6531 292.092 28.3111 289.949 30.4544L289.947 30.4563C287.827 32.5983 286.191 35.1532 285.037 38.1144C283.881 41.08 283.307 44.3318 283.307 47.864C283.307 51.3566 283.903 54.589 285.103 57.5555C286.301 60.5185 288.004 63.0736 290.21 65.2149L290.212 65.2166C292.44 67.3571 295.112 69.0234 298.219 70.2187L298.22 70.2191C301.357 71.4172 304.843 72.012 308.671 72.012C311.744 72.012 314.63 71.6116 317.326 70.8071L317.328 70.8064C320.051 69.9785 322.609 68.6827 324.999 66.9226L325.203 66.7728V66.52V47.8Z" fill="#EA4335" stroke="white"/>
</g>
</g>
</g>
</svg>
