<svg width="196" height="193" viewBox="0 0 196 193" fill="none" xmlns="http://www.w3.org/2000/svg">
<path d="M178.389 58.588L106.538 95.9056L19.3079 68.4884L142.826 4.66236C142.827 4.66177 142.828 4.66119 142.829 4.66061C160.148 -3.9374 181.274 1.24359 190.855 15.7955C200.42 31.1916 194.698 50.013 178.389 58.588Z" fill="#EA4335" stroke="black"/>
<path d="M189.866 176.825L189.862 176.833L189.857 176.84C184.13 186.325 172.646 192.397 160.167 192.397C154.399 192.397 148.652 191.53 141.936 188.064L17.5798 123.119C1.29764 114.468 -4.40715 94.602 5.13354 79.9505C14.6974 65.2634 36.7531 60.0455 53.0587 68.7096L53.0618 68.7112L177.42 133.657C193.702 142.309 199.407 162.174 189.866 176.825Z" fill="#4285F4" stroke="black"/>
</svg>
