<svg width="192" height="193" viewBox="0 0 192 193" fill="none" xmlns="http://www.w3.org/2000/svg">
<path d="M6.0105 176.077L6.00694 176.071C-3.37115 160.535 2.24268 141.547 18.2067 132.902C18.2075 132.902 18.2083 132.901 18.2092 132.901L89.5075 95.2766L173.05 123.788L52.0655 188.165C46.3845 190.778 40.7441 192.5 35.1293 192.5C23.8452 192.5 12.5822 187.311 6.0105 176.077Z" fill="#FBBC04" stroke="black"/>
<path d="M186.275 112.889L186.27 112.896L186.266 112.904C180.646 122.386 169.382 128.451 157.145 128.451C151.52 128.451 144.925 126.723 139.256 124.116L17.256 59.1991C1.2864 50.5527 -4.31745 30.6912 5.04706 16.0391L5.04707 16.039C14.4294 1.35808 36.0608 -3.85321 52.05 4.80361L52.0532 4.8053L174.066 69.7296C190.035 78.3754 195.639 98.2371 186.275 112.889Z" fill="#0F9D58" stroke="black"/>
</svg>
